<svg width="40" height="40" viewBox="0 0 40 40" fill="none" xmlns="http://www.w3.org/2000/svg">
    <rect width="40" height="40" fill="black"/>
    <g filter="url(#filter0_d_37_2)">
        <path d="M11.1612 9.81623C9.41301 11.5644 8.2225 13.7917 7.74019 16.2164C7.25787 18.6412 7.50542 21.1545 8.45151 23.4386C9.39761 25.7227 10.9998 27.6749 13.0554 29.0484C15.111 30.4219 17.5277 30.9746 20 30.9746C22.4723 30.9746 24.889 30.4219 26.9446 29.0484C29.0002 27.6749 30.6024 25.7227 31.5485 23.4386C32.4946 21.1545 32.7421 18.6412 32.2598 16.2164C31.7775 13.7917 30.587 11.5644 28.8388 9.81623C28.5708 9.54818 28.2889 9.29395 28.0014 9.05356C27.7913 8.87793 27.4748 9.06259 27.4923 9.33582C27.5522 10.2698 27.4364 11.2091 27.1487 12.1045C26.7831 13.2424 26.1503 14.2763 25.3033 15.1195C24.179 16.2439 22.7267 16.982 21.1558 17.2276C19.5849 17.4731 17.9765 17.2133 16.5628 16.4857C15.1491 15.7581 14.003 14.6002 13.2899 13.1791C12.6911 11.9858 12.4235 10.6587 12.508 9.33528C12.5254 9.06212 12.2091 8.87761 11.9991 9.05318C11.7114 9.29369 11.4294 9.54804 11.1612 9.81623Z" fill="#EEEEEE"/>
        <path d="M11.1612 9.81623C9.41301 11.5644 8.2225 13.7917 7.74019 16.2164C7.25787 18.6412 7.50542 21.1545 8.45151 23.4386C9.39761 25.7227 10.9998 27.6749 13.0554 29.0484C15.111 30.4219 17.5277 30.9746 20 30.9746C22.4723 30.9746 24.889 30.4219 26.9446 29.0484C29.0002 27.6749 30.6024 25.7227 31.5485 23.4386C32.4946 21.1545 32.7421 18.6412 32.2598 16.2164C31.7775 13.7917 30.587 11.5644 28.8388 9.81623C28.5708 9.54818 28.2889 9.29395 28.0014 9.05356C27.7913 8.87793 27.4748 9.06259 27.4923 9.33582C27.5522 10.2698 27.4364 11.2091 27.1487 12.1045C26.7831 13.2424 26.1503 14.2763 25.3033 15.1195C24.179 16.2439 22.7267 16.982 21.1558 17.2276C19.5849 17.4731 17.9765 17.2133 16.5628 16.4857C15.1491 15.7581 14.003 14.6002 13.2899 13.1791C12.6911 11.9858 12.4235 10.6587 12.508 9.33528C12.5254 9.06212 12.2091 8.87761 11.9991 9.05318C11.7114 9.29369 11.4294 9.54804 11.1612 9.81623Z" fill="#EEEEEE"/>
        <path d="M11.1612 9.81623C9.41301 11.5644 8.2225 13.7917 7.74019 16.2164C7.25787 18.6412 7.50542 21.1545 8.45151 23.4386C9.39761 25.7227 10.9998 27.6749 13.0554 29.0484C15.111 30.4219 17.5277 30.9746 20 30.9746C22.4723 30.9746 24.889 30.4219 26.9446 29.0484C29.0002 27.6749 30.6024 25.7227 31.5485 23.4386C32.4946 21.1545 32.7421 18.6412 32.2598 16.2164C31.7775 13.7917 30.587 11.5644 28.8388 9.81623C28.5708 9.54818 28.2889 9.29395 28.0014 9.05356C27.7913 8.87793 27.4748 9.06259 27.4923 9.33582C27.5522 10.2698 27.4364 11.2091 27.1487 12.1045C26.7831 13.2424 26.1503 14.2763 25.3033 15.1195C24.179 16.2439 22.7267 16.982 21.1558 17.2276C19.5849 17.4731 17.9765 17.2133 16.5628 16.4857C15.1491 15.7581 14.003 14.6002 13.2899 13.1791C12.6911 11.9858 12.4235 10.6587 12.508 9.33528C12.5254 9.06212 12.2091 8.87761 11.9991 9.05318C11.7114 9.29369 11.4294 9.54804 11.1612 9.81623Z" stroke="white" stroke-width="0.078125"/>
    </g>
    <defs>
        <filter id="filter0_d_37_2" x="7.14844" y="8.78906" width="25.7031" height="22.6934" filterUnits="userSpaceOnUse" color-interpolation-filters="sRGB">
            <feFlood flood-opacity="0" result="BackgroundImageFix"/>
            <feColorMatrix in="SourceAlpha" type="matrix" values="0 0 0 0 0 0 0 0 0 0 0 0 0 0 0 0 0 0 127 0" result="hardAlpha"/>
            <feOffset dy="0.15625"/>
            <feGaussianBlur stdDeviation="0.15625"/>
            <feComposite in2="hardAlpha" operator="out"/>
            <feColorMatrix type="matrix" values="0 0 0 0 1 0 0 0 0 1 0 0 0 0 1 0 0 0 0.25 0"/>
            <feBlend mode="normal" in2="BackgroundImageFix" result="effect1_dropShadow_37_2"/>
            <feBlend mode="normal" in="SourceGraphic" in2="effect1_dropShadow_37_2" result="shape"/>
        </filter>
    </defs>
</svg>
